<mxfile host="app.diagrams.net" modified="2024-03-20T13:22:24.869Z" agent="Mozilla/5.0 (Windows NT 10.0; Win64; x64) AppleWebKit/537.36 (KHTML, like Gecko) Chrome/123.0.0.0 Safari/537.36" etag="7FKH-AbgBI9WUOIs3_yb" version="24.0.7" type="device">
  <diagram id="C5RBs43oDa-KdzZeNtuy" name="Page-1">
    <mxGraphModel dx="3027" dy="1170" grid="1" gridSize="10" guides="1" tooltips="1" connect="1" arrows="1" fold="1" page="1" pageScale="1" pageWidth="827" pageHeight="1169" math="0" shadow="0">
      <root>
        <mxCell id="WIyWlLk6GJQsqaUBKTNV-0" />
        <mxCell id="WIyWlLk6GJQsqaUBKTNV-1" parent="WIyWlLk6GJQsqaUBKTNV-0" />
        <mxCell id="WIyWlLk6GJQsqaUBKTNV-2" value="" style="rounded=0;html=1;jettySize=auto;orthogonalLoop=1;fontSize=11;endArrow=block;endFill=0;endSize=8;strokeWidth=1;shadow=0;labelBackgroundColor=none;edgeStyle=orthogonalEdgeStyle;" parent="WIyWlLk6GJQsqaUBKTNV-1" source="WIyWlLk6GJQsqaUBKTNV-3" target="WIyWlLk6GJQsqaUBKTNV-6" edge="1">
          <mxGeometry relative="1" as="geometry" />
        </mxCell>
        <mxCell id="WIyWlLk6GJQsqaUBKTNV-3" value="&lt;font style=&quot;font-size: 16px;&quot;&gt;Halaman Page&lt;/font&gt;" style="rounded=1;whiteSpace=wrap;html=1;fontSize=12;glass=0;strokeWidth=1;shadow=0;" parent="WIyWlLk6GJQsqaUBKTNV-1" vertex="1">
          <mxGeometry x="210" y="64" width="120" height="40" as="geometry" />
        </mxCell>
        <mxCell id="WIyWlLk6GJQsqaUBKTNV-4" value="True" style="rounded=0;html=1;jettySize=auto;orthogonalLoop=1;fontSize=11;endArrow=block;endFill=0;endSize=8;strokeWidth=1;shadow=0;labelBackgroundColor=none;edgeStyle=orthogonalEdgeStyle;entryX=0.5;entryY=0;entryDx=0;entryDy=0;" parent="WIyWlLk6GJQsqaUBKTNV-1" source="WIyWlLk6GJQsqaUBKTNV-6" target="WIyWlLk6GJQsqaUBKTNV-12" edge="1">
          <mxGeometry y="20" relative="1" as="geometry">
            <mxPoint as="offset" />
            <mxPoint x="270" y="274" as="targetPoint" />
          </mxGeometry>
        </mxCell>
        <mxCell id="WIyWlLk6GJQsqaUBKTNV-5" value="False" style="edgeStyle=orthogonalEdgeStyle;rounded=0;html=1;jettySize=auto;orthogonalLoop=1;fontSize=11;endArrow=block;endFill=0;endSize=8;strokeWidth=1;shadow=0;labelBackgroundColor=none;align=right;" parent="WIyWlLk6GJQsqaUBKTNV-1" source="WIyWlLk6GJQsqaUBKTNV-6" target="WIyWlLk6GJQsqaUBKTNV-7" edge="1">
          <mxGeometry y="10" relative="1" as="geometry">
            <mxPoint as="offset" />
          </mxGeometry>
        </mxCell>
        <mxCell id="Gm9wRnBrAHGHoyQCNDVP-54" style="edgeStyle=orthogonalEdgeStyle;rounded=0;orthogonalLoop=1;jettySize=auto;html=1;entryX=0.5;entryY=0;entryDx=0;entryDy=0;" edge="1" parent="WIyWlLk6GJQsqaUBKTNV-1" source="WIyWlLk6GJQsqaUBKTNV-6" target="Gm9wRnBrAHGHoyQCNDVP-50">
          <mxGeometry relative="1" as="geometry" />
        </mxCell>
        <mxCell id="WIyWlLk6GJQsqaUBKTNV-6" value="Login" style="rhombus;whiteSpace=wrap;html=1;shadow=0;fontFamily=Helvetica;fontSize=12;align=center;strokeWidth=1;spacing=6;spacingTop=-4;" parent="WIyWlLk6GJQsqaUBKTNV-1" vertex="1">
          <mxGeometry x="220" y="154" width="100" height="80" as="geometry" />
        </mxCell>
        <mxCell id="Gm9wRnBrAHGHoyQCNDVP-10" style="edgeStyle=orthogonalEdgeStyle;rounded=0;orthogonalLoop=1;jettySize=auto;html=1;entryX=0;entryY=0.5;entryDx=0;entryDy=0;" edge="1" parent="WIyWlLk6GJQsqaUBKTNV-1" source="WIyWlLk6GJQsqaUBKTNV-7" target="Gm9wRnBrAHGHoyQCNDVP-8">
          <mxGeometry relative="1" as="geometry" />
        </mxCell>
        <mxCell id="WIyWlLk6GJQsqaUBKTNV-7" value="Register" style="rounded=1;whiteSpace=wrap;html=1;fontSize=12;glass=0;strokeWidth=1;shadow=0;" parent="WIyWlLk6GJQsqaUBKTNV-1" vertex="1">
          <mxGeometry x="391" y="144" width="120" height="40" as="geometry" />
        </mxCell>
        <mxCell id="Gm9wRnBrAHGHoyQCNDVP-11" style="edgeStyle=orthogonalEdgeStyle;rounded=0;orthogonalLoop=1;jettySize=auto;html=1;" edge="1" parent="WIyWlLk6GJQsqaUBKTNV-1" source="WIyWlLk6GJQsqaUBKTNV-12" target="Gm9wRnBrAHGHoyQCNDVP-5">
          <mxGeometry relative="1" as="geometry" />
        </mxCell>
        <mxCell id="WIyWlLk6GJQsqaUBKTNV-12" value="Menu" style="rounded=1;whiteSpace=wrap;html=1;fontSize=12;glass=0;strokeWidth=1;shadow=0;" parent="WIyWlLk6GJQsqaUBKTNV-1" vertex="1">
          <mxGeometry x="210" y="284" width="120" height="40" as="geometry" />
        </mxCell>
        <mxCell id="Gm9wRnBrAHGHoyQCNDVP-1" value="&lt;font style=&quot;font-size: 30px;&quot;&gt;BIMASAKTI&lt;/font&gt;" style="text;html=1;align=center;verticalAlign=middle;whiteSpace=wrap;rounded=0;" vertex="1" parent="WIyWlLk6GJQsqaUBKTNV-1">
          <mxGeometry x="198" y="10" width="170" height="30" as="geometry" />
        </mxCell>
        <mxCell id="Gm9wRnBrAHGHoyQCNDVP-2" value="Biodata Mahasiswa Dan Materi Kuliah" style="text;align=left;verticalAlign=top;spacingLeft=4;spacingRight=4;overflow=hidden;rotatable=0;points=[[0,0.5],[1,0.5]];portConstraint=eastwest;" vertex="1" parent="WIyWlLk6GJQsqaUBKTNV-1">
          <mxGeometry x="177" y="38" width="214" height="26" as="geometry" />
        </mxCell>
        <mxCell id="Gm9wRnBrAHGHoyQCNDVP-13" style="edgeStyle=orthogonalEdgeStyle;rounded=0;orthogonalLoop=1;jettySize=auto;html=1;entryX=0.5;entryY=0;entryDx=0;entryDy=0;" edge="1" parent="WIyWlLk6GJQsqaUBKTNV-1" source="Gm9wRnBrAHGHoyQCNDVP-5" target="Gm9wRnBrAHGHoyQCNDVP-16">
          <mxGeometry relative="1" as="geometry">
            <mxPoint x="270" y="534" as="targetPoint" />
          </mxGeometry>
        </mxCell>
        <mxCell id="Gm9wRnBrAHGHoyQCNDVP-15" style="edgeStyle=orthogonalEdgeStyle;rounded=0;orthogonalLoop=1;jettySize=auto;html=1;entryX=0;entryY=0.5;entryDx=0;entryDy=0;" edge="1" parent="WIyWlLk6GJQsqaUBKTNV-1" source="Gm9wRnBrAHGHoyQCNDVP-5" target="Gm9wRnBrAHGHoyQCNDVP-14">
          <mxGeometry relative="1" as="geometry" />
        </mxCell>
        <mxCell id="Gm9wRnBrAHGHoyQCNDVP-61" style="edgeStyle=orthogonalEdgeStyle;rounded=0;orthogonalLoop=1;jettySize=auto;html=1;entryX=0.5;entryY=0;entryDx=0;entryDy=0;" edge="1" parent="WIyWlLk6GJQsqaUBKTNV-1" source="Gm9wRnBrAHGHoyQCNDVP-5" target="Gm9wRnBrAHGHoyQCNDVP-60">
          <mxGeometry relative="1" as="geometry">
            <Array as="points">
              <mxPoint x="210" y="434" />
              <mxPoint x="210" y="500" />
              <mxPoint x="-40" y="500" />
            </Array>
          </mxGeometry>
        </mxCell>
        <mxCell id="Gm9wRnBrAHGHoyQCNDVP-5" value="Memilih" style="rhombus;whiteSpace=wrap;html=1;shadow=0;fontFamily=Helvetica;fontSize=12;align=center;strokeWidth=1;spacing=6;spacingTop=-4;" vertex="1" parent="WIyWlLk6GJQsqaUBKTNV-1">
          <mxGeometry x="220" y="394" width="100" height="80" as="geometry" />
        </mxCell>
        <mxCell id="Gm9wRnBrAHGHoyQCNDVP-6" value="" style="edgeStyle=orthogonalEdgeStyle;rounded=0;html=1;jettySize=auto;orthogonalLoop=1;fontSize=11;endArrow=block;endFill=0;endSize=8;strokeWidth=1;shadow=0;labelBackgroundColor=none;" edge="1" parent="WIyWlLk6GJQsqaUBKTNV-1" target="Gm9wRnBrAHGHoyQCNDVP-7" source="WIyWlLk6GJQsqaUBKTNV-6">
          <mxGeometry x="-0.003" y="10" relative="1" as="geometry">
            <mxPoint as="offset" />
            <mxPoint x="330" y="254" as="sourcePoint" />
          </mxGeometry>
        </mxCell>
        <mxCell id="Gm9wRnBrAHGHoyQCNDVP-9" style="edgeStyle=orthogonalEdgeStyle;rounded=0;orthogonalLoop=1;jettySize=auto;html=1;entryX=0;entryY=0.5;entryDx=0;entryDy=0;" edge="1" parent="WIyWlLk6GJQsqaUBKTNV-1" source="Gm9wRnBrAHGHoyQCNDVP-7" target="Gm9wRnBrAHGHoyQCNDVP-8">
          <mxGeometry relative="1" as="geometry" />
        </mxCell>
        <mxCell id="Gm9wRnBrAHGHoyQCNDVP-7" value="Lupa Sandi" style="rounded=1;whiteSpace=wrap;html=1;fontSize=12;glass=0;strokeWidth=1;shadow=0;" vertex="1" parent="WIyWlLk6GJQsqaUBKTNV-1">
          <mxGeometry x="390" y="234" width="120" height="40" as="geometry" />
        </mxCell>
        <mxCell id="Gm9wRnBrAHGHoyQCNDVP-24" style="edgeStyle=orthogonalEdgeStyle;rounded=0;orthogonalLoop=1;jettySize=auto;html=1;entryX=1;entryY=0.5;entryDx=0;entryDy=0;exitX=0.557;exitY=0.003;exitDx=0;exitDy=0;exitPerimeter=0;" edge="1" parent="WIyWlLk6GJQsqaUBKTNV-1" source="Gm9wRnBrAHGHoyQCNDVP-8" target="WIyWlLk6GJQsqaUBKTNV-3">
          <mxGeometry relative="1" as="geometry">
            <mxPoint x="620" y="74.00000000000006" as="targetPoint" />
          </mxGeometry>
        </mxCell>
        <mxCell id="Gm9wRnBrAHGHoyQCNDVP-8" value="Verifikasi" style="rounded=1;whiteSpace=wrap;html=1;fontSize=12;glass=0;strokeWidth=1;shadow=0;" vertex="1" parent="WIyWlLk6GJQsqaUBKTNV-1">
          <mxGeometry x="560" y="184" width="120" height="40" as="geometry" />
        </mxCell>
        <mxCell id="Gm9wRnBrAHGHoyQCNDVP-12" style="edgeStyle=orthogonalEdgeStyle;rounded=0;orthogonalLoop=1;jettySize=auto;html=1;exitX=0.5;exitY=1;exitDx=0;exitDy=0;" edge="1" parent="WIyWlLk6GJQsqaUBKTNV-1">
          <mxGeometry relative="1" as="geometry">
            <mxPoint x="270" y="574" as="sourcePoint" />
            <mxPoint x="270" y="574" as="targetPoint" />
          </mxGeometry>
        </mxCell>
        <mxCell id="Gm9wRnBrAHGHoyQCNDVP-25" style="edgeStyle=orthogonalEdgeStyle;rounded=0;orthogonalLoop=1;jettySize=auto;html=1;entryX=0.5;entryY=0;entryDx=0;entryDy=0;" edge="1" parent="WIyWlLk6GJQsqaUBKTNV-1" source="Gm9wRnBrAHGHoyQCNDVP-14" target="Gm9wRnBrAHGHoyQCNDVP-22">
          <mxGeometry relative="1" as="geometry">
            <mxPoint x="550" y="499" as="targetPoint" />
          </mxGeometry>
        </mxCell>
        <mxCell id="Gm9wRnBrAHGHoyQCNDVP-84" style="edgeStyle=orthogonalEdgeStyle;rounded=0;orthogonalLoop=1;jettySize=auto;html=1;entryX=0.5;entryY=0;entryDx=0;entryDy=0;" edge="1" parent="WIyWlLk6GJQsqaUBKTNV-1" source="Gm9wRnBrAHGHoyQCNDVP-14" target="Gm9wRnBrAHGHoyQCNDVP-80">
          <mxGeometry relative="1" as="geometry">
            <Array as="points">
              <mxPoint x="550" y="310" />
              <mxPoint x="790" y="310" />
            </Array>
          </mxGeometry>
        </mxCell>
        <mxCell id="Gm9wRnBrAHGHoyQCNDVP-14" value="&lt;font style=&quot;font-size: 15px;&quot;&gt;Menu Pemilihan Mata Kuliah&lt;/font&gt;" style="rounded=1;whiteSpace=wrap;html=1;fontSize=12;glass=0;strokeWidth=1;shadow=0;" vertex="1" parent="WIyWlLk6GJQsqaUBKTNV-1">
          <mxGeometry x="490" y="414" width="120" height="40" as="geometry" />
        </mxCell>
        <mxCell id="Gm9wRnBrAHGHoyQCNDVP-32" style="edgeStyle=orthogonalEdgeStyle;rounded=0;orthogonalLoop=1;jettySize=auto;html=1;entryX=0.5;entryY=0;entryDx=0;entryDy=0;" edge="1" parent="WIyWlLk6GJQsqaUBKTNV-1" source="Gm9wRnBrAHGHoyQCNDVP-16" target="Gm9wRnBrAHGHoyQCNDVP-29">
          <mxGeometry relative="1" as="geometry" />
        </mxCell>
        <mxCell id="Gm9wRnBrAHGHoyQCNDVP-16" value="&lt;span style=&quot;font-size: 15px;&quot;&gt;Biodata&lt;/span&gt;" style="rounded=1;whiteSpace=wrap;html=1;fontSize=12;glass=0;strokeWidth=1;shadow=0;" vertex="1" parent="WIyWlLk6GJQsqaUBKTNV-1">
          <mxGeometry x="210" y="539" width="120" height="40" as="geometry" />
        </mxCell>
        <mxCell id="Gm9wRnBrAHGHoyQCNDVP-44" style="edgeStyle=orthogonalEdgeStyle;rounded=0;orthogonalLoop=1;jettySize=auto;html=1;entryX=0.5;entryY=0;entryDx=0;entryDy=0;" edge="1" parent="WIyWlLk6GJQsqaUBKTNV-1" source="Gm9wRnBrAHGHoyQCNDVP-21" target="Gm9wRnBrAHGHoyQCNDVP-43">
          <mxGeometry relative="1" as="geometry" />
        </mxCell>
        <mxCell id="Gm9wRnBrAHGHoyQCNDVP-21" value="&lt;font style=&quot;font-size: 15px;&quot;&gt;Buka Soal&lt;/font&gt;" style="rounded=1;whiteSpace=wrap;html=1;fontSize=12;glass=0;strokeWidth=1;shadow=0;" vertex="1" parent="WIyWlLk6GJQsqaUBKTNV-1">
          <mxGeometry x="490" y="624" width="120" height="40" as="geometry" />
        </mxCell>
        <mxCell id="Gm9wRnBrAHGHoyQCNDVP-42" style="edgeStyle=orthogonalEdgeStyle;rounded=0;orthogonalLoop=1;jettySize=auto;html=1;" edge="1" parent="WIyWlLk6GJQsqaUBKTNV-1" source="Gm9wRnBrAHGHoyQCNDVP-22" target="Gm9wRnBrAHGHoyQCNDVP-21">
          <mxGeometry relative="1" as="geometry" />
        </mxCell>
        <mxCell id="Gm9wRnBrAHGHoyQCNDVP-22" value="&lt;font style=&quot;font-size: 15px;&quot;&gt;Bank Materi&lt;/font&gt;" style="rounded=1;whiteSpace=wrap;html=1;fontSize=12;glass=0;strokeWidth=1;shadow=0;" vertex="1" parent="WIyWlLk6GJQsqaUBKTNV-1">
          <mxGeometry x="490" y="520" width="120" height="40" as="geometry" />
        </mxCell>
        <mxCell id="Gm9wRnBrAHGHoyQCNDVP-33" style="edgeStyle=orthogonalEdgeStyle;rounded=0;orthogonalLoop=1;jettySize=auto;html=1;entryX=1;entryY=0.5;entryDx=0;entryDy=0;" edge="1" parent="WIyWlLk6GJQsqaUBKTNV-1" source="Gm9wRnBrAHGHoyQCNDVP-29" target="Gm9wRnBrAHGHoyQCNDVP-31">
          <mxGeometry relative="1" as="geometry" />
        </mxCell>
        <mxCell id="Gm9wRnBrAHGHoyQCNDVP-29" value="Memilih" style="rhombus;whiteSpace=wrap;html=1;shadow=0;fontFamily=Helvetica;fontSize=12;align=center;strokeWidth=1;spacing=6;spacingTop=-4;" vertex="1" parent="WIyWlLk6GJQsqaUBKTNV-1">
          <mxGeometry x="220" y="644" width="100" height="80" as="geometry" />
        </mxCell>
        <mxCell id="Gm9wRnBrAHGHoyQCNDVP-66" style="edgeStyle=orthogonalEdgeStyle;rounded=0;orthogonalLoop=1;jettySize=auto;html=1;" edge="1" parent="WIyWlLk6GJQsqaUBKTNV-1" source="Gm9wRnBrAHGHoyQCNDVP-30" target="Gm9wRnBrAHGHoyQCNDVP-65">
          <mxGeometry relative="1" as="geometry" />
        </mxCell>
        <mxCell id="Gm9wRnBrAHGHoyQCNDVP-30" value="&lt;font style=&quot;font-size: 15px;&quot;&gt;Edit Biodata&lt;/font&gt;" style="rounded=1;whiteSpace=wrap;html=1;fontSize=12;glass=0;strokeWidth=1;shadow=0;" vertex="1" parent="WIyWlLk6GJQsqaUBKTNV-1">
          <mxGeometry x="-100" y="650" width="120" height="40" as="geometry" />
        </mxCell>
        <mxCell id="Gm9wRnBrAHGHoyQCNDVP-47" style="edgeStyle=orthogonalEdgeStyle;rounded=0;orthogonalLoop=1;jettySize=auto;html=1;" edge="1" parent="WIyWlLk6GJQsqaUBKTNV-1" source="Gm9wRnBrAHGHoyQCNDVP-31" target="Gm9wRnBrAHGHoyQCNDVP-46">
          <mxGeometry relative="1" as="geometry" />
        </mxCell>
        <mxCell id="Gm9wRnBrAHGHoyQCNDVP-31" value="&lt;font style=&quot;font-size: 15px;&quot;&gt;Mencari Biodata&lt;/font&gt;" style="rounded=1;whiteSpace=wrap;html=1;fontSize=12;glass=0;strokeWidth=1;shadow=0;" vertex="1" parent="WIyWlLk6GJQsqaUBKTNV-1">
          <mxGeometry x="30" y="664" width="120" height="40" as="geometry" />
        </mxCell>
        <mxCell id="Gm9wRnBrAHGHoyQCNDVP-45" style="edgeStyle=orthogonalEdgeStyle;rounded=0;orthogonalLoop=1;jettySize=auto;html=1;entryX=1;entryY=0.25;entryDx=0;entryDy=0;" edge="1" parent="WIyWlLk6GJQsqaUBKTNV-1" source="Gm9wRnBrAHGHoyQCNDVP-43" target="Gm9wRnBrAHGHoyQCNDVP-14">
          <mxGeometry relative="1" as="geometry">
            <Array as="points">
              <mxPoint x="650" y="744" />
              <mxPoint x="650" y="424" />
            </Array>
          </mxGeometry>
        </mxCell>
        <mxCell id="Gm9wRnBrAHGHoyQCNDVP-43" value="&lt;font style=&quot;font-size: 15px;&quot;&gt;Selesai / Button&lt;/font&gt;" style="rounded=1;whiteSpace=wrap;html=1;fontSize=12;glass=0;strokeWidth=1;shadow=0;" vertex="1" parent="WIyWlLk6GJQsqaUBKTNV-1">
          <mxGeometry x="490" y="724" width="120" height="40" as="geometry" />
        </mxCell>
        <mxCell id="Gm9wRnBrAHGHoyQCNDVP-49" style="edgeStyle=orthogonalEdgeStyle;rounded=0;orthogonalLoop=1;jettySize=auto;html=1;entryX=1;entryY=0.5;entryDx=0;entryDy=0;" edge="1" parent="WIyWlLk6GJQsqaUBKTNV-1" source="Gm9wRnBrAHGHoyQCNDVP-46" target="Gm9wRnBrAHGHoyQCNDVP-29">
          <mxGeometry relative="1" as="geometry">
            <Array as="points">
              <mxPoint x="90" y="870" />
              <mxPoint x="390" y="870" />
              <mxPoint x="390" y="684" />
            </Array>
          </mxGeometry>
        </mxCell>
        <mxCell id="Gm9wRnBrAHGHoyQCNDVP-46" value="&lt;font style=&quot;font-size: 15px;&quot;&gt;Selesai&lt;/font&gt;" style="rounded=1;whiteSpace=wrap;html=1;fontSize=12;glass=0;strokeWidth=1;shadow=0;" vertex="1" parent="WIyWlLk6GJQsqaUBKTNV-1">
          <mxGeometry x="30" y="800" width="120" height="40" as="geometry" />
        </mxCell>
        <mxCell id="Gm9wRnBrAHGHoyQCNDVP-50" value="List" style="swimlane;fontStyle=0;childLayout=stackLayout;horizontal=1;startSize=30;horizontalStack=0;resizeParent=1;resizeParentMax=0;resizeLast=0;collapsible=1;marginBottom=0;whiteSpace=wrap;html=1;" vertex="1" parent="WIyWlLk6GJQsqaUBKTNV-1">
          <mxGeometry x="-160" y="224" width="140" height="120" as="geometry" />
        </mxCell>
        <mxCell id="Gm9wRnBrAHGHoyQCNDVP-52" value="Id/Emali (Varchar(255))" style="text;strokeColor=none;fillColor=none;align=left;verticalAlign=middle;spacingLeft=4;spacingRight=4;overflow=hidden;points=[[0,0.5],[1,0.5]];portConstraint=eastwest;rotatable=0;whiteSpace=wrap;html=1;" vertex="1" parent="Gm9wRnBrAHGHoyQCNDVP-50">
          <mxGeometry y="30" width="140" height="30" as="geometry" />
        </mxCell>
        <mxCell id="Gm9wRnBrAHGHoyQCNDVP-53" value="Password (Varchar(255))" style="text;strokeColor=none;fillColor=none;align=left;verticalAlign=middle;spacingLeft=4;spacingRight=4;overflow=hidden;points=[[0,0.5],[1,0.5]];portConstraint=eastwest;rotatable=0;whiteSpace=wrap;html=1;" vertex="1" parent="Gm9wRnBrAHGHoyQCNDVP-50">
          <mxGeometry y="60" width="140" height="30" as="geometry" />
        </mxCell>
        <mxCell id="Gm9wRnBrAHGHoyQCNDVP-74" value="Id User (INT(10))" style="text;strokeColor=none;fillColor=none;align=left;verticalAlign=middle;spacingLeft=4;spacingRight=4;overflow=hidden;points=[[0,0.5],[1,0.5]];portConstraint=eastwest;rotatable=0;whiteSpace=wrap;html=1;" vertex="1" parent="Gm9wRnBrAHGHoyQCNDVP-50">
          <mxGeometry y="90" width="140" height="30" as="geometry" />
        </mxCell>
        <mxCell id="Gm9wRnBrAHGHoyQCNDVP-73" style="edgeStyle=orthogonalEdgeStyle;rounded=0;orthogonalLoop=1;jettySize=auto;html=1;entryX=0;entryY=0.5;entryDx=0;entryDy=0;exitX=1.004;exitY=0.071;exitDx=0;exitDy=0;exitPerimeter=0;" edge="1" parent="WIyWlLk6GJQsqaUBKTNV-1" source="Gm9wRnBrAHGHoyQCNDVP-56" target="Gm9wRnBrAHGHoyQCNDVP-60">
          <mxGeometry relative="1" as="geometry" />
        </mxCell>
        <mxCell id="Gm9wRnBrAHGHoyQCNDVP-56" value="Biodata" style="swimlane;fontStyle=0;childLayout=stackLayout;horizontal=1;startSize=30;horizontalStack=0;resizeParent=1;resizeParentMax=0;resizeLast=0;collapsible=1;marginBottom=0;whiteSpace=wrap;html=1;" vertex="1" parent="WIyWlLk6GJQsqaUBKTNV-1">
          <mxGeometry x="-460" y="474" width="140" height="300" as="geometry" />
        </mxCell>
        <mxCell id="Gm9wRnBrAHGHoyQCNDVP-72" value="Foto Profil (.img , .jpg,)" style="text;strokeColor=none;fillColor=none;align=left;verticalAlign=middle;spacingLeft=4;spacingRight=4;overflow=hidden;points=[[0,0.5],[1,0.5]];portConstraint=eastwest;rotatable=0;whiteSpace=wrap;html=1;" vertex="1" parent="Gm9wRnBrAHGHoyQCNDVP-56">
          <mxGeometry y="30" width="140" height="30" as="geometry" />
        </mxCell>
        <mxCell id="Gm9wRnBrAHGHoyQCNDVP-79" value="Gender (Enum(&#39;L&#39;,&#39;P&#39;))" style="text;strokeColor=none;fillColor=none;align=left;verticalAlign=middle;spacingLeft=4;spacingRight=4;overflow=hidden;points=[[0,0.5],[1,0.5]];portConstraint=eastwest;rotatable=0;whiteSpace=wrap;html=1;" vertex="1" parent="Gm9wRnBrAHGHoyQCNDVP-56">
          <mxGeometry y="60" width="140" height="30" as="geometry" />
        </mxCell>
        <mxCell id="Gm9wRnBrAHGHoyQCNDVP-76" value="Id/Emali (Varchar(255))" style="text;strokeColor=none;fillColor=none;align=left;verticalAlign=middle;spacingLeft=4;spacingRight=4;overflow=hidden;points=[[0,0.5],[1,0.5]];portConstraint=eastwest;rotatable=0;whiteSpace=wrap;html=1;" vertex="1" parent="Gm9wRnBrAHGHoyQCNDVP-56">
          <mxGeometry y="90" width="140" height="30" as="geometry" />
        </mxCell>
        <mxCell id="Gm9wRnBrAHGHoyQCNDVP-58" value="NPM (Char(10))" style="text;strokeColor=none;fillColor=none;align=left;verticalAlign=middle;spacingLeft=4;spacingRight=4;overflow=hidden;points=[[0,0.5],[1,0.5]];portConstraint=eastwest;rotatable=0;whiteSpace=wrap;html=1;" vertex="1" parent="Gm9wRnBrAHGHoyQCNDVP-56">
          <mxGeometry y="120" width="140" height="30" as="geometry" />
        </mxCell>
        <mxCell id="Gm9wRnBrAHGHoyQCNDVP-68" value="Tempat Lahir (Varc(255))" style="text;strokeColor=none;fillColor=none;align=left;verticalAlign=middle;spacingLeft=4;spacingRight=4;overflow=hidden;points=[[0,0.5],[1,0.5]];portConstraint=eastwest;rotatable=0;whiteSpace=wrap;html=1;" vertex="1" parent="Gm9wRnBrAHGHoyQCNDVP-56">
          <mxGeometry y="150" width="140" height="30" as="geometry" />
        </mxCell>
        <mxCell id="Gm9wRnBrAHGHoyQCNDVP-77" value="Tanggal Lahir (date(-))" style="text;strokeColor=none;fillColor=none;align=left;verticalAlign=middle;spacingLeft=4;spacingRight=4;overflow=hidden;points=[[0,0.5],[1,0.5]];portConstraint=eastwest;rotatable=0;whiteSpace=wrap;html=1;" vertex="1" parent="Gm9wRnBrAHGHoyQCNDVP-56">
          <mxGeometry y="180" width="140" height="30" as="geometry" />
        </mxCell>
        <mxCell id="Gm9wRnBrAHGHoyQCNDVP-70" value="Domisili (Var(255))" style="text;strokeColor=none;fillColor=none;align=left;verticalAlign=middle;spacingLeft=4;spacingRight=4;overflow=hidden;points=[[0,0.5],[1,0.5]];portConstraint=eastwest;rotatable=0;whiteSpace=wrap;html=1;" vertex="1" parent="Gm9wRnBrAHGHoyQCNDVP-56">
          <mxGeometry y="210" width="140" height="30" as="geometry" />
        </mxCell>
        <mxCell id="Gm9wRnBrAHGHoyQCNDVP-69" value="No Hp(varchar(13))" style="text;strokeColor=none;fillColor=none;align=left;verticalAlign=middle;spacingLeft=4;spacingRight=4;overflow=hidden;points=[[0,0.5],[1,0.5]];portConstraint=eastwest;rotatable=0;whiteSpace=wrap;html=1;" vertex="1" parent="Gm9wRnBrAHGHoyQCNDVP-56">
          <mxGeometry y="240" width="140" height="30" as="geometry" />
        </mxCell>
        <mxCell id="Gm9wRnBrAHGHoyQCNDVP-71" value="No Orang Tua (varchar(13))" style="text;strokeColor=none;fillColor=none;align=left;verticalAlign=middle;spacingLeft=4;spacingRight=4;overflow=hidden;points=[[0,0.5],[1,0.5]];portConstraint=eastwest;rotatable=0;whiteSpace=wrap;html=1;" vertex="1" parent="Gm9wRnBrAHGHoyQCNDVP-56">
          <mxGeometry y="270" width="140" height="30" as="geometry" />
        </mxCell>
        <mxCell id="Gm9wRnBrAHGHoyQCNDVP-64" style="edgeStyle=orthogonalEdgeStyle;rounded=0;orthogonalLoop=1;jettySize=auto;html=1;" edge="1" parent="WIyWlLk6GJQsqaUBKTNV-1" source="Gm9wRnBrAHGHoyQCNDVP-60" target="Gm9wRnBrAHGHoyQCNDVP-30">
          <mxGeometry relative="1" as="geometry" />
        </mxCell>
        <mxCell id="Gm9wRnBrAHGHoyQCNDVP-60" value="&lt;span style=&quot;font-size: 15px;&quot;&gt;Biodata&lt;/span&gt;" style="rounded=1;whiteSpace=wrap;html=1;fontSize=12;glass=0;strokeWidth=1;shadow=0;" vertex="1" parent="WIyWlLk6GJQsqaUBKTNV-1">
          <mxGeometry x="-100" y="560" width="120" height="40" as="geometry" />
        </mxCell>
        <mxCell id="Gm9wRnBrAHGHoyQCNDVP-67" style="edgeStyle=orthogonalEdgeStyle;rounded=0;orthogonalLoop=1;jettySize=auto;html=1;entryX=0;entryY=0.5;entryDx=0;entryDy=0;" edge="1" parent="WIyWlLk6GJQsqaUBKTNV-1" source="Gm9wRnBrAHGHoyQCNDVP-65" target="Gm9wRnBrAHGHoyQCNDVP-60">
          <mxGeometry relative="1" as="geometry">
            <Array as="points">
              <mxPoint x="-170" y="770" />
              <mxPoint x="-170" y="580" />
            </Array>
          </mxGeometry>
        </mxCell>
        <mxCell id="Gm9wRnBrAHGHoyQCNDVP-65" value="&lt;font style=&quot;font-size: 15px;&quot;&gt;Selesai&lt;/font&gt;" style="rounded=1;whiteSpace=wrap;html=1;fontSize=12;glass=0;strokeWidth=1;shadow=0;" vertex="1" parent="WIyWlLk6GJQsqaUBKTNV-1">
          <mxGeometry x="-100" y="750" width="120" height="40" as="geometry" />
        </mxCell>
        <mxCell id="Gm9wRnBrAHGHoyQCNDVP-80" value="Mata Kuliah (varchar(255))" style="swimlane;fontStyle=0;childLayout=stackLayout;horizontal=1;startSize=30;horizontalStack=0;resizeParent=1;resizeParentMax=0;resizeLast=0;collapsible=1;marginBottom=0;whiteSpace=wrap;html=1;" vertex="1" parent="WIyWlLk6GJQsqaUBKTNV-1">
          <mxGeometry x="720" y="430" width="140" height="90" as="geometry" />
        </mxCell>
        <mxCell id="Gm9wRnBrAHGHoyQCNDVP-81" value="Materi (text)" style="text;strokeColor=none;fillColor=none;align=left;verticalAlign=middle;spacingLeft=4;spacingRight=4;overflow=hidden;points=[[0,0.5],[1,0.5]];portConstraint=eastwest;rotatable=0;whiteSpace=wrap;html=1;" vertex="1" parent="Gm9wRnBrAHGHoyQCNDVP-80">
          <mxGeometry y="30" width="140" height="30" as="geometry" />
        </mxCell>
        <mxCell id="Gm9wRnBrAHGHoyQCNDVP-82" value="Soal (text)" style="text;strokeColor=none;fillColor=none;align=left;verticalAlign=middle;spacingLeft=4;spacingRight=4;overflow=hidden;points=[[0,0.5],[1,0.5]];portConstraint=eastwest;rotatable=0;whiteSpace=wrap;html=1;" vertex="1" parent="Gm9wRnBrAHGHoyQCNDVP-80">
          <mxGeometry y="60" width="140" height="30" as="geometry" />
        </mxCell>
      </root>
    </mxGraphModel>
  </diagram>
</mxfile>
